<svg data-v-fde0c5aa="" xmlns="http://www.w3.org/2000/svg" viewBox="0 0 300 300" class="iconAbove"><!----><defs data-v-fde0c5aa=""><!----></defs><rect data-v-fde0c5aa="" fill="#d1411e" x="0" y="0" width="300px" height="300px" class="logo-background-square"></rect><defs data-v-fde0c5aa=""><!----></defs><g data-v-fde0c5aa="" id="7a1d9720-df4a-439a-ab6f-fdd29721bb2b" fill="#ffffff" transform="matrix(2.8435797691345215,0,0,2.8435797691345215,21.327434671452817,157.09162167570074)"><path d="M2.59 16.31L2.59 16.31L2.59 16.31Q3.43 16.09 4.29 15.77L4.29 15.77L4.29 15.77Q5.15 15.46 5.94 15.06L5.94 15.06L5.94 15.06Q6.72 14.67 7.38 14.22L7.38 14.22L7.38 14.22Q8.05 13.78 8.53 13.30L8.53 13.30L8.53 13.30Q8.82 13.01 9.06 12.70L9.06 12.70L9.06 12.70Q9.31 12.39 9.47 12.05L9.47 12.05L9.47 12.05Q9.63 11.72 9.68 11.34L9.68 11.34L9.68 11.34Q9.73 10.96 9.63 10.53L9.63 10.53L9.63 10.53Q9.41 9.65 9.01 9.04L9.01 9.04L9.01 9.04Q8.61 8.43 8.13 7.90L8.13 7.90L8.13 7.90Q7.73 7.50 7.17 7.34L7.17 7.34L7.17 7.34Q6.62 7.18 5.98 7.20L5.98 7.20L5.98 7.20Q5.33 7.21 4.64 7.37L4.64 7.37L4.64 7.37Q3.95 7.53 3.26 7.78L3.26 7.78L3.26 7.78Q2.58 8.02 1.93 8.32L1.93 8.32L1.93 8.32Q1.29 8.62 0.76 8.90L0.76 8.90L0.76 8.90Q0.62 8.97 0.51 9.60L0.51 9.60L0.51 9.60Q0.41 10.22 0.32 11.14L0.32 11.14L0.32 11.14Q0.24 12.07 0.15 13.16L0.15 13.16L0.15 13.16Q0.07 14.25-0.01 15.27L-0.01 15.27L-0.01 15.27Q-0.10 16.28-0.20 17.08L-0.20 17.08L-0.20 17.08Q-0.31 17.88-0.43 18.21L-0.43 18.21L-0.43 18.21Q-0.52 18.58-0.39 18.80L-0.39 18.80L-0.39 18.80Q-0.25 19.03 0.01 19.17L0.01 19.17L0.01 19.17Q0.28 19.32 0.62 19.41L0.62 19.41L0.62 19.41Q0.97 19.50 1.33 19.60L1.33 19.60L1.33 19.60Q1.69 19.67 1.82 19.60L1.82 19.60L1.82 19.60Q1.95 19.53 2.02 19.31L2.02 19.31L2.02 19.31Q2.13 18.59 2.27 17.85L2.27 17.85L2.27 17.85Q2.42 17.11 2.59 16.31ZM3.19 13.68L3.19 13.68L3.19 13.68Q3.40 12.80 3.60 11.98L3.60 11.98L3.60 11.98Q3.81 11.17 4.03 10.42L4.03 10.42L4.03 10.42Q4.55 10.19 5.05 10.08L5.05 10.08L5.05 10.08Q5.54 9.97 5.94 9.95L5.94 9.95L5.94 9.95Q6.34 9.94 6.60 10.03L6.60 10.03L6.60 10.03Q6.86 10.12 6.90 10.29L6.90 10.29L6.90 10.29Q7.01 10.60 6.82 11.05L6.82 11.05L6.82 11.05Q6.62 11.49 6.15 11.98L6.15 11.98L6.15 11.98Q5.67 12.46 4.93 12.91L4.93 12.91L4.93 12.91Q4.19 13.37 3.19 13.68ZM13.54 8.20L13.54 8.20L13.54 8.20Q13.16 7.95 12.66 7.73L12.66 7.73L12.66 7.73Q12.15 7.50 11.72 7.39L11.72 7.39L11.72 7.39Q11.28 7.27 11.07 7.36L11.07 7.36L11.07 7.36Q10.85 7.45 10.72 7.85L10.72 7.85L10.72 7.85Q10.57 8.51 10.39 9.39L10.39 9.39L10.39 9.39Q10.21 10.26 10.03 11.24L10.03 11.24L10.03 11.24Q9.86 12.22 9.69 13.24L9.69 13.24L9.69 13.24Q9.52 14.27 9.39 15.19L9.39 15.19L9.39 15.19Q9.25 16.11 9.16 16.89L9.16 16.89L9.16 16.89Q9.07 17.67 9.04 18.16L9.04 18.16L9.04 18.16Q9.00 18.52 9.11 18.73L9.11 18.73L9.11 18.73Q9.21 18.93 9.53 19.08L9.53 19.08L9.53 19.08Q9.83 19.24 10.16 19.33L10.16 19.33L10.16 19.33Q10.49 19.43 10.85 19.53L10.85 19.53L10.85 19.53Q11.21 19.61 11.33 19.54L11.33 19.54L11.33 19.54Q11.45 19.47 11.52 19.24L11.52 19.24L11.52 19.24Q11.65 18.61 11.82 17.80L11.82 17.80L11.82 17.80Q12.00 17.00 12.21 16.09L12.21 16.09L12.21 16.09Q12.42 15.19 12.64 14.25L12.64 14.25L12.64 14.25Q12.87 13.30 13.10 12.40L13.10 12.40L13.10 12.40Q13.33 11.49 13.56 10.68L13.56 10.68L13.56 10.68Q13.79 9.87 13.99 9.24L13.99 9.24L13.99 9.24Q14.08 8.86 14.01 8.67L14.01 8.67L14.01 8.67Q13.93 8.47 13.54 8.20ZM18.54 10.07L18.54 10.07L18.54 10.07Q17.72 11.07 16.91 12.17L16.91 12.17L16.91 12.17Q16.10 13.27 15.38 14.31L15.38 14.31L15.38 14.31Q14.66 15.34 14.09 16.23L14.09 16.23L14.09 16.23Q13.52 17.11 13.20 17.68L13.20 17.68L13.20 17.68Q13.10 17.85 13.11 18.00L13.11 18.00L13.11 18.00Q13.12 18.14 13.18 18.27L13.18 18.27L13.18 18.27Q13.24 18.40 13.35 18.51L13.35 18.51L13.35 18.51Q13.45 18.62 13.55 18.72L13.55 18.72L13.55 18.72Q13.87 18.97 14.08 19.14L14.08 19.14L14.08 19.14Q14.29 19.31 14.53 19.47L14.53 19.47L14.53 19.47Q14.66 19.54 14.78 19.61L14.78 19.61L14.78 19.61Q14.90 19.67 15.05 19.70L15.05 19.70L15.05 19.70Q15.20 19.73 15.40 19.72L15.40 19.72L15.40 19.72Q15.60 19.71 15.88 19.64L15.88 19.64L15.88 19.64Q16.72 19.45 17.71 19.27L17.71 19.27L17.71 19.27Q18.70 19.10 19.60 18.93L19.60 18.93L19.60 18.93Q19.96 18.89 20.08 18.77L20.08 18.77L20.08 18.77Q20.19 18.66 20.08 18.38L20.08 18.38L20.08 18.38Q20.02 18.14 19.90 17.89L19.90 17.89L19.90 17.89Q19.78 17.64 19.61 17.37L19.61 17.37L19.61 17.37Q19.33 16.91 18.56 17.00L18.56 17.00L18.56 17.00Q17.99 17.07 17.48 17.14L17.48 17.14L17.48 17.14Q16.97 17.22 16.45 17.35L16.45 17.35L16.45 17.35Q17.78 15.62 19.26 13.79L19.26 13.79L19.26 13.79Q20.73 11.96 22.20 10.18L22.20 10.18L22.20 10.18Q22.48 9.86 22.52 9.57L22.52 9.57L22.52 9.57Q22.55 9.28 22.44 8.96L22.44 8.96L22.44 8.96Q22.36 8.71 22.28 8.42L22.28 8.42L22.28 8.42Q22.20 8.13 22.02 7.76L22.02 7.76L22.02 7.76Q21.87 7.43 21.67 7.31L21.67 7.31L21.67 7.31Q21.48 7.20 21.06 7.21L21.06 7.21L21.06 7.21Q20.29 7.25 19.42 7.31L19.42 7.31L19.42 7.31Q18.55 7.38 17.70 7.47L17.70 7.47L17.70 7.47Q16.84 7.56 16.05 7.69L16.05 7.69L16.05 7.69Q15.26 7.81 14.63 7.95L14.63 7.95L14.63 7.95Q14.35 8.05 14.27 8.16L14.27 8.16L14.27 8.16Q14.20 8.27 14.32 8.60L14.32 8.60L14.32 8.60Q14.41 8.76 14.51 8.95L14.51 8.95L14.51 8.95Q14.62 9.14 14.73 9.34L14.73 9.34L14.73 9.34Q14.84 9.53 14.95 9.70L14.95 9.70L14.95 9.70Q15.05 9.87 15.13 10.00L15.13 10.00L15.13 10.00Q15.41 10.32 15.72 10.40L15.72 10.40L15.72 10.40Q16.03 10.49 16.39 10.42L16.39 10.42L16.39 10.42Q16.88 10.30 17.40 10.24L17.40 10.24L17.40 10.24Q17.91 10.18 18.54 10.07ZM26.40 10.07L26.40 10.07L26.40 10.07Q25.59 11.07 24.78 12.17L24.78 12.17L24.78 12.17Q23.97 13.27 23.25 14.31L23.25 14.31L23.25 14.31Q22.53 15.34 21.96 16.23L21.96 16.23L21.96 16.23Q21.39 17.11 21.07 17.68L21.07 17.68L21.07 17.68Q20.97 17.85 20.98 18.00L20.98 18.00L20.98 18.00Q20.99 18.14 21.05 18.27L21.05 18.27L21.05 18.27Q21.11 18.40 21.22 18.51L21.22 18.51L21.22 18.51Q21.32 18.62 21.42 18.72L21.42 18.72L21.42 18.72Q21.74 18.97 21.95 19.14L21.95 19.14L21.95 19.14Q22.16 19.31 22.40 19.47L22.40 19.47L22.40 19.47Q22.53 19.54 22.65 19.61L22.65 19.61L22.65 19.61Q22.76 19.67 22.92 19.70L22.92 19.70L22.92 19.70Q23.07 19.73 23.27 19.72L23.27 19.72L23.27 19.72Q23.46 19.71 23.74 19.64L23.74 19.64L23.74 19.64Q24.58 19.45 25.58 19.27L25.58 19.27L25.58 19.27Q26.57 19.10 27.47 18.93L27.47 18.93L27.47 18.93Q27.83 18.89 27.94 18.77L27.94 18.77L27.94 18.77Q28.06 18.66 27.94 18.38L27.94 18.38L27.94 18.38Q27.89 18.14 27.77 17.89L27.77 17.89L27.77 17.89Q27.65 17.64 27.48 17.37L27.48 17.37L27.48 17.37Q27.20 16.91 26.43 17.00L26.43 17.00L26.43 17.00Q25.86 17.07 25.35 17.14L25.35 17.14L25.35 17.14Q24.84 17.22 24.32 17.35L24.32 17.35L24.32 17.35Q25.65 15.62 27.13 13.79L27.13 13.79L27.13 13.79Q28.60 11.96 30.07 10.18L30.07 10.18L30.07 10.18Q30.35 9.86 30.39 9.57L30.39 9.57L30.39 9.57Q30.42 9.28 30.31 8.96L30.31 8.96L30.31 8.96Q30.23 8.71 30.15 8.42L30.15 8.42L30.15 8.42Q30.07 8.13 29.89 7.76L29.89 7.76L29.89 7.76Q29.74 7.43 29.54 7.31L29.54 7.31L29.54 7.31Q29.34 7.20 28.92 7.21L28.92 7.21L28.92 7.21Q28.15 7.25 27.29 7.31L27.29 7.31L27.29 7.31Q26.42 7.38 25.56 7.47L25.56 7.47L25.56 7.47Q24.71 7.56 23.92 7.69L23.92 7.69L23.92 7.69Q23.13 7.81 22.50 7.95L22.50 7.95L22.50 7.95Q22.22 8.05 22.14 8.16L22.14 8.16L22.14 8.16Q22.06 8.27 22.19 8.60L22.19 8.60L22.19 8.60Q22.27 8.76 22.38 8.95L22.38 8.95L22.38 8.95Q22.48 9.14 22.60 9.34L22.60 9.34L22.60 9.34Q22.71 9.53 22.81 9.70L22.81 9.70L22.81 9.70Q22.92 9.87 23.00 10.00L23.00 10.00L23.00 10.00Q23.28 10.32 23.59 10.40L23.59 10.40L23.59 10.40Q23.90 10.49 24.26 10.42L24.26 10.42L24.26 10.42Q24.75 10.30 25.26 10.24L25.26 10.24L25.26 10.24Q25.77 10.18 26.40 10.07ZM35.85 16.67L35.85 16.67L35.85 16.67Q35.90 17.25 35.94 17.73L35.94 17.73L35.94 17.73Q35.98 18.21 36.04 18.62L36.04 18.62L36.04 18.62Q36.09 19.01 36.23 19.17L36.23 19.17L36.23 19.17Q36.36 19.32 36.69 19.42L36.69 19.42L36.69 19.42Q37.02 19.53 37.32 19.55L37.32 19.55L37.32 19.55Q37.63 19.57 38.00 19.57L38.00 19.57L38.00 19.57Q38.36 19.57 38.47 19.47L38.47 19.47L38.47 19.47Q38.57 19.38 38.57 19.12L38.57 19.12L38.57 19.12Q38.56 17.92 38.56 16.51L38.56 16.51L38.56 16.51Q38.57 15.11 38.60 13.71L38.60 13.71L38.60 13.71Q38.63 12.31 38.68 11.02L38.68 11.02L38.68 11.02Q38.74 9.73 38.82 8.74L38.82 8.74L38.82 8.74Q38.86 8.33 38.75 8.08L38.75 8.08L38.75 8.08Q38.63 7.83 38.19 7.67L38.19 7.67L38.19 7.67Q37.87 7.59 37.56 7.49L37.56 7.49L37.56 7.49Q37.24 7.39 36.87 7.31L36.87 7.31L36.87 7.31Q36.50 7.22 36.05 7.16L36.05 7.16L36.05 7.16Q35.60 7.10 35.03 7.07L35.03 7.07L35.03 7.07Q34.37 7.01 34.03 7.25L34.03 7.25L34.03 7.25Q33.70 7.49 33.49 7.87L33.49 7.87L33.49 7.87Q32.90 8.92 32.25 10.27L32.25 10.27L32.25 10.27Q31.60 11.62 30.98 13.01L30.98 13.01L30.98 13.01Q30.35 14.39 29.81 15.69L29.81 15.69L29.81 15.69Q29.27 17.00 28.94 17.96L28.94 17.96L28.94 17.96Q28.85 18.26 28.86 18.43L28.86 18.43L28.86 18.43Q28.87 18.61 28.94 18.72L28.94 18.72L28.94 18.72Q29.01 18.83 29.13 18.91L29.13 18.91L29.13 18.91Q29.26 18.98 29.43 19.10L29.43 19.10L29.43 19.10Q29.65 19.21 29.87 19.30L29.87 19.30L29.87 19.30Q30.09 19.39 30.27 19.46L30.27 19.46L30.27 19.46Q30.59 19.57 30.75 19.53L30.75 19.53L30.75 19.53Q30.91 19.49 31.02 19.25L31.02 19.25L31.02 19.25Q31.22 18.80 31.43 18.33L31.43 18.33L31.43 18.33Q31.64 17.86 31.92 17.32L31.92 17.32L31.92 17.32Q32.72 17.11 33.76 16.96L33.76 16.96L33.76 16.96Q34.80 16.81 35.85 16.67ZM33.18 14.71L33.18 14.71L33.18 14.71Q33.84 13.38 34.49 12.14L34.49 12.14L34.49 12.14Q35.14 10.91 35.70 9.88L35.70 9.88L35.70 9.88Q35.67 11.00 35.69 12.14L35.69 12.14L35.69 12.14Q35.70 13.29 35.73 14.43L35.73 14.43L35.73 14.43Q35.08 14.48 34.45 14.55L34.45 14.55L34.45 14.55Q33.81 14.62 33.18 14.71ZM42.69 12.47L42.69 12.47L42.69 12.47Q42.90 13.87 43.16 15.19L43.16 15.19L43.16 15.19Q43.41 16.51 43.69 17.51L43.69 17.51L43.69 17.51Q43.76 17.75 43.83 17.91L43.83 17.91L43.83 17.91Q43.89 18.06 43.97 18.16L43.97 18.16L43.97 18.16Q44.06 18.27 44.17 18.33L44.17 18.33L44.17 18.33Q44.28 18.40 44.44 18.45L44.44 18.45L44.44 18.45Q44.86 18.59 45.42 18.70L45.42 18.70L45.42 18.70Q45.60 18.75 45.71 18.74L45.71 18.74L45.71 18.74Q45.82 18.73 45.89 18.69L45.89 18.69L45.89 18.69Q45.96 18.65 46.01 18.56L46.01 18.56L46.01 18.56Q46.06 18.47 46.13 18.31L46.13 18.31L46.13 18.31Q46.35 17.82 46.73 17.09L46.73 17.09L46.73 17.09Q47.10 16.35 47.54 15.53L47.54 15.53L47.54 15.53Q47.98 14.70 48.45 13.85L48.45 13.85L48.45 13.85Q48.92 12.99 49.34 12.26L49.34 12.26L49.34 12.26Q49.10 13.09 48.90 13.97L48.90 13.97L48.90 13.97Q48.69 14.85 48.52 15.66L48.52 15.66L48.52 15.66Q48.36 16.46 48.23 17.13L48.23 17.13L48.23 17.13Q48.10 17.79 48.05 18.21L48.05 18.21L48.05 18.21Q47.98 18.56 48.08 18.77L48.08 18.77L48.08 18.77Q48.19 18.98 48.51 19.14L48.51 19.14L48.51 19.14Q48.76 19.28 49.10 19.38L49.10 19.38L49.10 19.38Q49.43 19.47 49.76 19.54L49.76 19.54L49.76 19.54Q50.12 19.63 50.25 19.52L50.25 19.52L50.25 19.52Q50.37 19.40 50.47 19.15L50.47 19.15L50.47 19.15Q50.58 18.66 50.78 17.92L50.78 17.92L50.78 17.92Q50.97 17.18 51.22 16.30L51.22 16.30L51.22 16.30Q51.46 15.41 51.74 14.45L51.74 14.45L51.74 14.45Q52.01 13.48 52.28 12.54L52.28 12.54L52.28 12.54Q52.56 11.61 52.82 10.75L52.82 10.75L52.82 10.75Q53.09 9.90 53.30 9.24L53.30 9.24L53.30 9.24Q53.45 8.78 53.35 8.52L53.35 8.52L53.35 8.52Q53.24 8.26 52.84 8.06L52.84 8.06L52.84 8.06Q52.22 7.78 51.58 7.57L51.58 7.57L51.58 7.57Q50.95 7.36 50.37 7.21L50.37 7.21L50.37 7.21Q49.88 7.07 49.57 7.10L49.57 7.10L49.57 7.10Q49.25 7.13 49.00 7.34L49.00 7.34L49.00 7.34Q48.75 7.56 48.51 7.97L48.51 7.97L48.51 7.97Q48.27 8.39 47.95 9.03L47.95 9.03L47.95 9.03Q47.63 9.59 47.29 10.22L47.29 10.22L47.29 10.22Q46.94 10.85 46.62 11.48L46.62 11.48L46.62 11.48Q46.30 12.11 46.00 12.71L46.00 12.71L46.00 12.71Q45.70 13.31 45.47 13.82L45.47 13.82L45.47 13.82Q45.25 12.38 45.12 11.55L45.12 11.55L45.12 11.55Q45.00 10.72 44.93 10.28L44.93 10.28L44.93 10.28Q44.87 9.83 44.85 9.65L44.85 9.65L44.85 9.65Q44.83 9.48 44.83 9.35L44.83 9.35L44.83 9.35Q44.77 9.09 44.72 8.88L44.72 8.88L44.72 8.88Q44.67 8.67 44.56 8.49L44.56 8.49L44.56 8.49Q44.45 8.32 44.25 8.17L44.25 8.17L44.25 8.17Q44.06 8.02 43.72 7.90L43.72 7.90L43.72 7.90Q43.19 7.70 42.67 7.56L42.67 7.56L42.67 7.56Q42.14 7.42 41.38 7.31L41.38 7.31L41.38 7.31Q40.89 7.24 40.66 7.36L40.66 7.36L40.66 7.36Q40.43 7.48 40.31 7.95L40.31 7.95L40.31 7.95Q40.18 8.61 40.05 9.47L40.05 9.47L40.05 9.47Q39.91 10.33 39.78 11.30L39.78 11.30L39.78 11.30Q39.65 12.26 39.54 13.26L39.54 13.26L39.54 13.26Q39.42 14.25 39.33 15.18L39.33 15.18L39.33 15.18Q39.24 16.10 39.19 16.89L39.19 16.89L39.19 16.89Q39.14 17.68 39.14 18.23L39.14 18.23L39.14 18.23Q39.12 18.59 39.24 18.79L39.24 18.79L39.24 18.79Q39.37 18.98 39.72 19.15L39.72 19.15L39.72 19.15Q40.00 19.29 40.33 19.40L40.33 19.40L40.33 19.40Q40.66 19.50 40.98 19.57L40.98 19.57L40.98 19.57Q41.31 19.64 41.44 19.57L41.44 19.57L41.44 19.57Q41.57 19.49 41.62 19.24L41.62 19.24L41.62 19.24Q41.68 18.63 41.78 17.86L41.78 17.86L41.78 17.86Q41.89 17.09 42.03 16.21L42.03 16.21L42.03 16.21Q42.17 15.33 42.34 14.38L42.34 14.38L42.34 14.38Q42.50 13.43 42.69 12.47ZM52.93 17.89L52.93 17.89L52.93 17.89Q53.16 18.28 53.47 18.55L53.47 18.55L53.47 18.55Q53.77 18.82 54.12 19.01L54.12 19.01L54.12 19.01Q54.94 19.46 56.20 19.54L56.20 19.54L56.20 19.54Q56.83 19.59 57.32 19.50L57.32 19.50L57.32 19.50Q57.81 19.40 58.30 19.17L58.30 19.17L58.30 19.17Q58.98 18.77 59.54 17.91L59.54 17.91L59.54 17.91Q60.10 17.04 60.58 15.75L60.58 15.75L60.58 15.75Q61.05 14.46 61.48 12.79L61.48 12.79L61.48 12.79Q61.91 11.12 62.33 9.11L62.33 9.11L62.33 9.11Q62.37 8.93 62.38 8.80L62.38 8.80L62.38 8.80Q62.40 8.67 62.36 8.55L62.36 8.55L62.36 8.55Q62.31 8.44 62.21 8.34L62.21 8.34L62.21 8.34Q62.10 8.23 61.91 8.11L61.91 8.11L61.91 8.11Q61.53 7.88 61.08 7.65L61.08 7.65L61.08 7.65Q60.62 7.42 60.22 7.31L60.22 7.31L60.22 7.31Q59.82 7.21 59.54 7.29L59.54 7.29L59.54 7.29Q59.26 7.38 59.23 7.80L59.23 7.80L59.23 7.80Q59.07 8.67 58.86 9.77L58.86 9.77L58.86 9.77Q58.65 10.88 58.39 12.02L58.39 12.02L58.39 12.02Q58.13 13.16 57.83 14.24L57.83 14.24L57.83 14.24Q57.53 15.32 57.20 16.14L57.20 16.14L57.20 16.14Q56.87 16.95 56.50 17.42L56.50 17.42L56.50 17.42Q56.14 17.88 55.76 17.78L55.76 17.78L55.76 17.78Q55.45 17.70 55.35 17.26L55.35 17.26L55.35 17.26Q55.24 16.83 55.28 16.17L55.28 16.17L55.28 16.17Q55.31 15.51 55.46 14.69L55.46 14.69L55.46 14.69Q55.61 13.86 55.82 12.99L55.82 12.99L55.82 12.99Q56.03 12.12 56.27 11.28L56.27 11.28L56.27 11.28Q56.52 10.43 56.74 9.70L56.74 9.70L56.74 9.70Q56.98 8.85 56.22 8.30L56.22 8.30L56.22 8.30Q55.86 8.04 55.48 7.84L55.48 7.84L55.48 7.84Q55.09 7.64 54.67 7.52L54.67 7.52L54.67 7.52Q54.22 7.36 54.01 7.45L54.01 7.45L54.01 7.45Q53.79 7.53 53.68 7.94L53.68 7.94L53.68 7.94Q53.42 8.83 53.19 9.78L53.19 9.78L53.19 9.78Q52.96 10.72 52.78 11.66L52.78 11.66L52.78 11.66Q52.60 12.60 52.49 13.51L52.49 13.51L52.49 13.51Q52.37 14.42 52.37 15.23L52.37 15.23L52.37 15.23Q52.37 16.04 52.51 16.72L52.51 16.72L52.51 16.72Q52.64 17.40 52.93 17.89ZM67.96 14.74L67.96 14.74L67.96 14.74Q67.80 14.03 67.65 13.25L67.65 13.25L67.65 13.25Q67.49 12.47 67.35 11.74L67.35 11.74L67.35 11.74Q67.21 11.00 67.10 10.37L67.10 10.37L67.10 10.37Q66.99 9.74 66.92 9.34L66.92 9.34L66.92 9.34Q66.84 8.81 66.65 8.53L66.65 8.53L66.65 8.53Q66.47 8.26 66.04 8.08L66.04 8.08L66.04 8.08Q65.51 7.83 65.02 7.67L65.02 7.67L65.02 7.67Q64.53 7.52 64.01 7.36L64.01 7.36L64.01 7.36Q63.57 7.25 63.32 7.36L63.32 7.36L63.32 7.36Q63.07 7.46 62.97 7.88L62.97 7.88L62.97 7.88Q62.82 8.61 62.66 9.55L62.66 9.55L62.66 9.55Q62.50 10.49 62.34 11.49L62.34 11.49L62.34 11.49Q62.19 12.50 62.06 13.52L62.06 13.52L62.06 13.52Q61.92 14.53 61.82 15.42L61.82 15.42L61.82 15.42Q61.71 16.31 61.65 17.01L61.65 17.01L61.65 17.01Q61.59 17.71 61.56 18.09L61.56 18.09L61.56 18.09Q61.53 18.45 61.64 18.66L61.64 18.66L61.64 18.66Q61.74 18.86 62.05 19.01L62.05 19.01L62.05 19.01Q62.37 19.21 62.71 19.30L62.71 19.30L62.71 19.30Q63.06 19.39 63.39 19.47L63.39 19.47L63.39 19.47Q63.76 19.57 63.88 19.51L63.88 19.51L63.88 19.51Q64.01 19.45 64.06 19.21L64.06 19.21L64.06 19.21Q64.13 18.70 64.25 18.02L64.25 18.02L64.25 18.02Q64.37 17.35 64.52 16.55L64.52 16.55L64.52 16.55Q64.67 15.76 64.83 14.90L64.83 14.90L64.83 14.90Q64.99 14.03 65.14 13.16L65.14 13.16L65.14 13.16Q65.32 13.89 65.53 14.61L65.53 14.61L65.53 14.61Q65.74 15.33 65.95 16.00L65.95 16.00L65.95 16.00Q66.16 16.66 66.37 17.23L66.37 17.23L66.37 17.23Q66.57 17.81 66.77 18.24L66.77 18.24L66.77 18.24Q67.02 18.84 67.63 19.08L67.63 19.08L67.63 19.08Q68.31 19.32 68.95 19.45L68.95 19.45L68.95 19.45Q69.71 19.61 69.79 19.08L69.79 19.08L69.79 19.08Q70.01 18.10 70.33 16.81L70.33 16.81L70.33 16.81Q70.64 15.51 70.99 14.15L70.99 14.15L70.99 14.15Q71.33 12.80 71.68 11.48L71.68 11.48L71.68 11.48Q72.03 10.16 72.35 9.13L72.35 9.13L72.35 9.13Q72.46 8.76 72.42 8.51L72.42 8.51L72.42 8.51Q72.37 8.25 71.96 7.99L71.96 7.99L71.96 7.99Q71.72 7.84 71.54 7.74L71.54 7.74L71.54 7.74Q71.36 7.64 71.20 7.57L71.20 7.57L71.20 7.57Q71.04 7.50 70.87 7.46L70.87 7.46L70.87 7.46Q70.70 7.42 70.49 7.36L70.49 7.36L70.49 7.36Q70.04 7.25 69.81 7.35L69.81 7.35L69.81 7.35Q69.58 7.45 69.47 7.85L69.47 7.85L69.47 7.85Q69.06 9.35 68.65 11.13L68.65 11.13L68.65 11.13Q68.24 12.91 67.96 14.74ZM78.93 16.38L78.93 16.38L78.93 16.38Q77.60 16.00 76.78 16.84L76.78 16.84L76.78 16.84Q75.63 18.02 75.07 17.84L75.07 17.84L75.07 17.84Q74.77 17.75 74.62 17.36L74.62 17.36L74.62 17.36Q74.47 16.97 74.44 16.40L74.44 16.40L74.44 16.40Q74.41 15.83 74.50 15.14L74.50 15.14L74.50 15.14Q74.59 14.45 74.77 13.75L74.77 13.75L74.77 13.75Q74.97 13.08 75.31 12.29L75.31 12.29L75.31 12.29Q75.66 11.51 76.05 10.86L76.05 10.86L76.05 10.86Q76.44 10.21 76.82 9.80L76.82 9.80L76.82 9.80Q77.20 9.39 77.48 9.48L77.48 9.48L77.48 9.48Q77.76 9.59 77.81 9.95L77.81 9.95L77.81 9.95Q77.87 10.32 77.85 10.77L77.85 10.77L77.85 10.77Q77.85 11.02 77.90 11.31L77.90 11.31L77.90 11.31Q77.95 11.66 78.08 11.93L78.08 11.93L78.08 11.93Q78.20 12.19 78.41 12.40L78.41 12.40L78.41 12.40Q78.62 12.60 78.95 12.75L78.95 12.75L78.95 12.75Q79.27 12.89 79.72 12.98L79.72 12.98L79.72 12.98Q79.95 13.02 80.09 13.01L80.09 13.01L80.09 13.01Q80.23 12.99 80.31 12.94L80.31 12.94L80.31 12.94Q80.39 12.88 80.43 12.78L80.43 12.78L80.43 12.78Q80.47 12.68 80.51 12.57L80.51 12.57L80.51 12.57Q80.60 12.32 80.67 12.00L80.67 12.00L80.67 12.00Q80.74 11.69 80.78 11.35L80.78 11.35L80.78 11.35Q80.82 11.00 80.84 10.65L80.84 10.65L80.84 10.65Q80.86 10.30 80.85 9.98L80.85 9.98L80.85 9.98Q80.84 9.70 80.79 9.46L80.79 9.46L80.79 9.46Q80.75 9.21 80.65 8.99L80.65 8.99L80.65 8.99Q80.54 8.76 80.37 8.55L80.37 8.55L80.37 8.55Q80.19 8.33 79.93 8.11L79.93 8.11L79.93 8.11Q79.65 7.92 79.30 7.75L79.30 7.75L79.30 7.75Q78.95 7.57 78.55 7.43L78.55 7.43L78.55 7.43Q78.16 7.28 77.74 7.18L77.74 7.18L77.74 7.18Q77.32 7.07 76.93 7.03L76.93 7.03L76.93 7.03Q76.40 6.99 75.80 7.14L75.80 7.14L75.80 7.14Q75.19 7.29 74.61 7.80L74.61 7.80L74.61 7.80Q73.88 8.43 73.31 9.26L73.31 9.26L73.31 9.26Q72.74 10.09 72.34 11.03L72.34 11.03L72.34 11.03Q71.93 11.97 71.70 12.96L71.70 12.96L71.70 12.96Q71.47 13.94 71.43 14.88L71.43 14.88L71.43 14.88Q71.39 15.81 71.53 16.63L71.53 16.63L71.53 16.63Q71.68 17.44 72.04 18.05L72.04 18.05L72.04 18.05Q72.25 18.44 72.63 18.73L72.63 18.73L72.63 18.73Q73.01 19.03 73.39 19.18L73.39 19.18L73.39 19.18Q73.81 19.32 74.34 19.48L74.34 19.48L74.34 19.48Q74.87 19.64 75.53 19.68L75.53 19.68L75.53 19.68Q75.84 19.71 76.17 19.68L76.17 19.68L76.17 19.68Q76.50 19.66 76.80 19.59L76.80 19.59L76.80 19.59Q77.10 19.52 77.37 19.40L77.37 19.40L77.37 19.40Q77.64 19.29 77.84 19.17L77.84 19.17L77.84 19.17Q78.23 18.89 78.62 18.47L78.62 18.47L78.62 18.47Q79.02 18.05 79.27 17.54L79.27 17.54L79.27 17.54Q79.51 17.11 79.49 16.81L79.49 16.81L79.49 16.81Q79.46 16.52 78.93 16.38ZM90.90 8.97L90.90 8.97L90.90 8.97Q91.01 8.61 90.94 8.41L90.94 8.41L90.94 8.41Q90.86 8.22 90.50 7.95L90.50 7.95L90.50 7.95Q90.10 7.70 89.67 7.50L89.67 7.50L89.67 7.50Q89.24 7.29 88.83 7.18L88.83 7.18L88.83 7.18Q88.40 7.06 88.17 7.12L88.17 7.12L88.17 7.12Q87.93 7.18 87.81 7.63L87.81 7.63L87.81 7.63Q87.49 8.82 87.16 10.28L87.16 10.28L87.16 10.28Q86.83 11.75 86.48 13.23L86.48 13.23L86.48 13.23Q85.95 13.27 85.38 13.31L85.38 13.31L85.38 13.31Q84.81 13.36 84.22 13.43L84.22 13.43L84.22 13.43Q84.50 12.19 84.75 11.12L84.75 11.12L84.75 11.12Q84.99 10.04 85.22 9.24L85.22 9.24L85.22 9.24Q85.26 9.06 85.27 8.92L85.27 8.92L85.27 8.92Q85.29 8.78 85.24 8.67L85.24 8.67L85.24 8.67Q85.19 8.55 85.07 8.44L85.07 8.44L85.07 8.44Q84.95 8.33 84.74 8.20L84.74 8.20L84.74 8.20Q84.36 7.95 83.85 7.73L83.85 7.73L83.85 7.73Q83.34 7.52 82.89 7.39L82.89 7.39L82.89 7.39Q82.49 7.24 82.28 7.32L82.28 7.32L82.28 7.32Q82.07 7.41 81.96 7.85L81.96 7.85L81.96 7.85Q81.79 9.03 81.63 10.42L81.63 10.42L81.63 10.42Q81.47 11.82 81.30 13.22L81.30 13.22L81.30 13.22Q81.13 14.62 80.95 15.90L80.95 15.90L80.95 15.90Q80.77 17.19 80.56 18.16L80.56 18.16L80.56 18.16Q80.47 18.52 80.61 18.73L80.61 18.73L80.61 18.73Q80.75 18.93 81.07 19.08L81.07 19.08L81.07 19.08Q81.34 19.24 81.71 19.33L81.71 19.33L81.71 19.33Q82.08 19.43 82.43 19.53L82.43 19.53L82.43 19.53Q82.80 19.61 82.92 19.54L82.92 19.54L82.92 19.54Q83.03 19.47 83.09 19.24L83.09 19.24L83.09 19.24Q83.20 18.56 83.34 17.72L83.34 17.72L83.34 17.72Q83.48 16.87 83.71 15.90L83.71 15.90L83.71 15.90Q84.29 15.81 84.86 15.73L84.86 15.73L84.86 15.73Q85.43 15.65 86.02 15.57L86.02 15.57L86.02 15.57Q85.86 16.38 85.75 17.04L85.75 17.04L85.75 17.04Q85.64 17.70 85.58 18.20L85.58 18.20L85.58 18.20Q85.46 18.70 85.78 18.95L85.78 18.95L85.78 18.95Q86.10 19.19 86.67 19.36L86.67 19.36L86.67 19.36Q86.95 19.43 87.20 19.50L87.20 19.50L87.20 19.50Q87.44 19.56 87.63 19.57L87.63 19.57L87.63 19.57Q87.81 19.57 87.91 19.51L87.91 19.51L87.91 19.51Q88.02 19.45 88.02 19.25L88.02 19.25L88.02 19.25Q88.30 18.09 88.66 16.73L88.66 16.73L88.66 16.73Q89.01 15.37 89.40 14L89.40 14L89.40 14Q89.78 12.63 90.17 11.33L90.17 11.33L90.17 11.33Q90.57 10.02 90.90 8.97Z"></path></g><defs data-v-fde0c5aa=""><!----></defs><g data-v-fde0c5aa="" id="66d15690-91a6-4e0a-b98d-f91428e3348f" stroke="none" fill="#fffff" transform="matrix(2.2572550773620605,0,0,2.2572550773620605,113.88391746700285,86.8619939707433)"><path d="M0 31.984h32v-32H0v32zm2-30h28v28H2v-28z"></path><path d="M6.439 16.831h8.959l-4.48-7.741zM16.602 13.331h8.959L21.082 5.59zM6.439 26.41h8.959l-4.48-7.741zM16.602 22.91h8.959l-4.479-7.741z"></path></g><!----></svg>